HIERARCHY
ROOT Hips
{
	OFFSET 0.000000 0.000000 0.000000
	CHANNELS 6 Xposition Yposition Zposition Xrotation Yrotation Zrotation
	JOINT LeftUpLeg_virtual
	{
		OFFSET 0.000000 0.000000 0.000000
		CHANNELS 3 Xrotation Yrotation Zrotation
		JOINT LeftUpLeg
		{
			OFFSET 15.427100 -6.655098 0.678600
			CHANNELS 3 Xrotation Yrotation Zrotation
			JOINT LeftLeg
			{
				OFFSET 4.081073 -39.591068 13.024000
				CHANNELS 3 Xrotation Yrotation Zrotation
				JOINT LeftFoot
				{
					OFFSET -4.081074 -37.707932 -15.979700
					CHANNELS 3 Xrotation Yrotation Zrotation
					JOINT LeftToeBase
					{
						OFFSET 5.346399 -15.068900 20.645000
						CHANNELS 3 Xrotation Yrotation Zrotation
						JOINT LeftToe_End
						{
							OFFSET 2.754700 0.931300 11.300900
							CHANNELS 3 Xrotation Yrotation Zrotation
							End Site
							{
								OFFSET 0 0 0
							}
						}
					}
				}
			}
		}
	}
	JOINT RightUpLeg_virtual
	{
		OFFSET 0.000000 0.000000 0.000000
		CHANNELS 3 Xrotation Yrotation Zrotation
		JOINT RightUpLeg
		{
			OFFSET -15.569500 -6.655098 0.678600
			CHANNELS 3 Xrotation Yrotation Zrotation
			JOINT RightLeg
			{
				OFFSET -4.081825 -39.591045 13.023800
				CHANNELS 3 Xrotation Yrotation Zrotation
				JOINT RightFoot
				{
					OFFSET 4.081824 -37.707954 -15.979600
					CHANNELS 3 Xrotation Yrotation Zrotation
					JOINT RightToeBase
					{
						OFFSET -5.346400 -15.068900 20.645000
						CHANNELS 3 Xrotation Yrotation Zrotation
						JOINT RightToe_End
						{
							OFFSET -2.754700 0.931300 11.300900
							CHANNELS 3 Xrotation Yrotation Zrotation
							End Site
							{
								OFFSET 0 0 0
							}
						}
					}
				}
			}
		}
	}
	JOINT Spine_virtual
	{
		OFFSET 0.000000 0.000000 0.000000
		CHANNELS 3 Xrotation Yrotation Zrotation
		JOINT Spine
		{
			OFFSET -0.279200 12.230698 -2.892100
			CHANNELS 3 Xrotation Yrotation Zrotation
			JOINT Spine1
			{
				OFFSET -0.232667 10.192268 -1.242267
				CHANNELS 3 Xrotation Yrotation Zrotation
				JOINT Spine1_split
				{
					OFFSET -0.232667 10.192268 -1.242267
					CHANNELS 3 Xrotation Yrotation Zrotation
					JOINT Spine2
					{
						OFFSET -0.232667 10.192268 -1.242267
						CHANNELS 3 Xrotation Yrotation Zrotation
						JOINT Neck_virtual
						{
							OFFSET 0.000000 0.000000 0.000000
							CHANNELS 3 Xrotation Yrotation Zrotation
							JOINT Neck
							{
								OFFSET -0.418800 17.814194 8.416900
								CHANNELS 3 Xrotation Yrotation Zrotation
								JOINT Head
								{
									OFFSET 0.000000 7.031097 3.806800
									CHANNELS 3 Xrotation Yrotation Zrotation
									JOINT HeadTop_End
									{
										OFFSET 0.000000 24.646606 12.978600
										CHANNELS 3 Xrotation Yrotation Zrotation
										End Site
										{
											OFFSET 0 0 0
										}
									}
								}
							}
						}
						JOINT LeftShoulder_virtual
						{
							OFFSET 0.000000 0.000000 0.000000
							CHANNELS 3 Xrotation Yrotation Zrotation
							JOINT LeftShoulder
							{
								OFFSET 8.476499 7.247704 -3.868750
								CHANNELS 3 Xrotation Yrotation Zrotation
								JOINT LeftShoulder_split
								{
									OFFSET 8.476499 7.247704 -3.868750
									CHANNELS 3 Xrotation Yrotation Zrotation
									JOINT LeftArm
									{
										OFFSET 9.308998 -2.777710 0.208600
										CHANNELS 3 Xrotation Yrotation Zrotation
										JOINT LeftForeArm
										{
											OFFSET 29.972298 0.000000 0.000000
											CHANNELS 3 Xrotation Yrotation Zrotation
											JOINT LeftHand
											{
												OFFSET 26.026505 0.000000 0.000000
												CHANNELS 3 Xrotation Yrotation Zrotation
												End Site
												{
													OFFSET 0 0 0
												}
											}
										}
									}
								}
							}
						}
						JOINT RightShoulder_virtual
						{
							OFFSET 0.000000 0.000000 0.000000
							CHANNELS 3 Xrotation Yrotation Zrotation
							JOINT RightShoulder
							{
								OFFSET -7.570500 7.247704 -3.868750
								CHANNELS 3 Xrotation Yrotation Zrotation
								JOINT RightShoulder_split
								{
									OFFSET -7.570500 7.247704 -3.868750
									CHANNELS 3 Xrotation Yrotation Zrotation
									JOINT RightArm
									{
										OFFSET -9.308998 -2.777710 0.208500
										CHANNELS 3 Xrotation Yrotation Zrotation
										JOINT RightForeArm
										{
											OFFSET -29.972300 0.000000 0.000000
											CHANNELS 3 Xrotation Yrotation Zrotation
											JOINT RightHand
											{
												OFFSET -26.026505 0.000000 0.000000
												CHANNELS 3 Xrotation Yrotation Zrotation
												End Site
												{
													OFFSET 0 0 0
												}
											}
										}
									}
								}
							}
						}
					}
				}
			}
		}
	}
}
MOTION
Frames: 4
Frame Time: 0.03333333
0.848344 92.187805 -1.277897 0.000000 0.000000 0.000000 5.070059 -29.251238 1.386595 -15.806699 17.703592 12.166440 19.957587 12.791764 -1.311253 -3.366285 -4.323958 -5.898676 -0.038470 0.283165 -0.021230 0.000000 0.000000 0.000000 8.379916 -28.423552 2.152706 -2.399607 3.696494 -9.036703 10.603403 12.326802 5.287985 -10.995601 -3.500723 4.563444 3.138540 1.012677 -0.137297 0.000000 0.000000 0.000000 3.641371 -30.727327 -1.039297 7.255950 1.740190 -1.891008 0.238114 0.942722 2.756424 2.495528 1.855273 -0.182014 0.000000 0.000000 0.000000 0.793533 0.712624 4.113989 -2.364691 23.869694 -9.692380 -2.023570 11.009765 6.302843 0.000000 0.000000 0.000000 -0.109184 1.076949 2.835924 0.651809 -13.577975 1.791149 -2.569464 -0.950650 -3.079737 -56.288105 -1.139409 -34.818973 11.946667 -61.683131 14.912034 0.000000 0.000000 0.000000 1.189436 1.133108 3.550870 4.662586 3.534113 8.497317 1.390531 2.367689 -3.745551 -1.167571 -11.288289 65.235806 15.306922 32.148970 -3.443976 0.000000 0.000000 0.000000 
1.222506 92.005615 -1.966507 0.000000 0.000000 0.000000 5.149624 -28.685483 1.885168 -15.564893 16.875961 12.145328 19.659453 12.145080 -1.521076 -3.086027 -4.565509 -5.577502 0.697576 0.251487 -0.201680 0.000000 0.000000 0.000000 7.981690 -27.420633 2.368666 -3.085276 2.954531 -9.970813 10.665797 12.196952 5.194044 -11.040692 -3.386077 3.549154 5.206246 0.996974 -0.014611 0.000000 0.000000 0.000000 3.504952 -31.077497 -0.631939 7.337438 1.495778 -1.559958 0.209835 0.683690 2.670519 1.456022 3.060955 -0.403409 0.000000 0.000000 0.000000 1.108809 0.399492 3.973872 -1.990052 23.553489 -9.556995 -2.672899 11.634794 5.601598 0.000000 0.000000 0.000000 -0.209914 0.899962 2.795317 0.409974 -12.592448 1.426962 -1.001843 -2.052742 -2.530886 -56.861243 -1.437608 -35.306214 12.889320 -62.381866 15.164521 0.000000 0.000000 0.000000 0.983345 0.769229 3.416241 4.327619 3.399001 7.731304 1.063079 1.565144 -2.846806 -1.488814 -10.379525 66.122583 14.514359 30.285025 -2.772833 0.000000 0.000000 0.000000 
1.544270 91.756340 -2.568695 0.000000 0.000000 0.000000 5.297518 -28.171674 2.500058 -15.502438 16.300991 12.459936 18.666608 11.942772 -1.794362 -2.990472 -4.071039 -4.815100 1.478998 0.173396 -0.573755 0.000000 0.000000 0.000000 7.548812 -26.257752 2.639263 -4.748935 2.115442 -11.446882 11.747241 12.454114 5.223745 -10.245122 -2.994873 3.551412 5.116945 0.918470 -0.018808 0.000000 0.000000 0.000000 3.627601 -31.368661 -0.049539 7.758317 1.186597 -0.569990 0.217570 0.359509 2.090490 0.797056 3.832753 -0.317987 0.000000 0.000000 0.000000 1.553727 0.053935 3.330145 -2.203825 22.824590 -10.005439 -4.249521 12.656543 4.415842 0.000000 0.000000 0.000000 -0.139834 0.738940 2.322757 0.127552 -11.167984 0.544534 0.416580 -3.052902 -1.443481 -56.554974 -1.292672 -35.527536 11.216245 -63.207930 12.940474 0.000000 0.000000 0.000000 0.803375 0.372667 2.791277 3.921160 3.508614 5.771252 0.403183 0.894360 -1.787166 -1.247186 -10.302061 68.407869 12.971026 27.861588 -1.496532 0.000000 0.000000 0.000000 
2.077820 91.413826 -3.065212 0.000000 0.000000 0.000000 5.465268 -28.169570 3.116403 -15.776540 15.768315 12.945307 17.739330 11.895124 -2.135478 -3.258399 -3.266407 -4.179225 1.711599 0.063652 -0.908177 0.000000 0.000000 0.000000 7.142589 -25.621923 3.000394 -7.254411 1.392633 -13.125360 13.657660 12.981627 5.289745 -9.271469 -2.448158 3.917213 3.608806 0.763292 0.003749 0.000000 0.000000 0.000000 4.129310 -31.903189 0.723385 8.529835 0.882290 0.850569 0.271649 0.042205 1.128964 0.913029 4.103586 0.179435 0.000000 0.000000 0.000000 1.960655 -0.223472 2.263744 -2.808726 21.591179 -10.996301 -6.421723 13.811553 2.963834 0.000000 0.000000 0.000000 0.119527 0.591436 1.476337 -0.150004 -9.634808 -0.660418 1.621384 -3.671823 -0.311935 -55.620775 -0.290613 -34.759055 6.549233 -63.892909 8.005081 0.000000 0.000000 0.000000 0.693366 0.039549 1.756498 3.591311 3.656426 2.795363 -0.188175 0.278932 -0.815520 0.012463 -11.259074 71.889647 11.062751 26.473214 -0.019822 0.000000 0.000000 0.000000 
